<svg width="24" height="24" viewBox="0 0 24 24" fill="none" xmlns="http://www.w3.org/2000/svg">
<path d="M6.80603 17.9159C6.06384 17.9159 5.41443 17.7695 4.85779 17.4765C4.30603 17.1884 3.8739 16.788 3.5614 16.2753C3.25378 15.7626 3.09998 15.1767 3.09998 14.5175C3.09998 13.9902 3.20251 13.5068 3.40759 13.0673C3.61755 12.623 3.91052 12.2421 4.2865 11.9247C4.66736 11.6025 5.10681 11.3681 5.60486 11.2216C5.67322 10.4892 5.86609 9.81047 6.18347 9.18547C6.50574 8.56047 6.91833 8.01604 7.42126 7.55217C7.92908 7.0883 8.50525 6.72697 9.14978 6.46819C9.79919 6.2094 10.4852 6.08 11.2079 6.08C12.3212 6.08 13.3124 6.35344 14.1815 6.90031C15.0507 7.44719 15.7318 8.21135 16.225 9.19279C16.8939 9.18791 17.5116 9.29533 18.078 9.51506C18.6493 9.7299 19.1449 10.0351 19.5648 10.4306C19.9847 10.8261 20.3119 11.2875 20.5463 11.8149C20.7806 12.3422 20.8978 12.9184 20.8978 13.5434C20.8978 14.1537 20.7831 14.725 20.5536 15.2572C20.329 15.7895 20.0116 16.2533 19.6014 16.6488C19.1962 17.0444 18.7225 17.3544 18.1805 17.579C17.6385 17.8036 17.0526 17.9159 16.4227 17.9159H6.80603Z" fill="white"/>
</svg>
