<svg width="24" height="24" viewBox="0 0 24 24" fill="none" xmlns="http://www.w3.org/2000/svg">
<path d="M7.07227 14.7286C6.33008 14.7286 5.69287 14.5845 5.16064 14.2965C4.6333 14.0035 4.22803 13.6104 3.94482 13.1173C3.66162 12.6192 3.52002 12.0675 3.52002 11.462C3.52002 10.9346 3.62256 10.4586 3.82764 10.0338C4.0376 9.60896 4.3208 9.24763 4.67725 8.94978C5.03369 8.65193 5.43896 8.43709 5.89307 8.30525C5.95654 7.62166 6.13965 6.98445 6.44238 6.39363C6.74512 5.80281 7.13818 5.28523 7.62158 4.8409C8.10498 4.39656 8.6543 4.04988 9.26953 3.80086C9.88965 3.54695 10.5513 3.42 11.2544 3.42C11.9966 3.42 12.6729 3.54451 13.2832 3.79353C13.8936 4.04256 14.4307 4.38924 14.8945 4.83357C15.3633 5.27791 15.7466 5.79549 16.0444 6.38631C16.6743 6.38631 17.2578 6.49129 17.7949 6.70125C18.332 6.90633 18.8008 7.19685 19.2012 7.57283C19.6064 7.94392 19.9214 8.38338 20.146 8.89119C20.3706 9.39412 20.4829 9.94588 20.4829 10.5465C20.4829 11.1226 20.3755 11.6646 20.1606 12.1724C19.9507 12.6754 19.6504 13.1197 19.2598 13.5054C18.874 13.8912 18.4199 14.1915 17.8975 14.4063C17.375 14.6212 16.8086 14.7286 16.1982 14.7286H7.07227ZM7.29199 18.2589C7.22852 18.3761 7.1333 18.4517 7.00635 18.4859C6.87939 18.525 6.75732 18.5128 6.64014 18.4493C6.51807 18.3761 6.43994 18.276 6.40576 18.149C6.37646 18.0269 6.396 17.9122 6.46436 17.8048L7.4165 16.1495C7.48975 16.0274 7.5874 15.9493 7.70947 15.9151C7.83154 15.8809 7.95361 15.898 8.07568 15.9664C8.18799 16.0347 8.26123 16.1324 8.29541 16.2594C8.32959 16.3814 8.31006 16.5035 8.23682 16.6256L7.29199 18.2589ZM9.00586 20.3463C8.9375 20.4586 8.84229 20.5318 8.72021 20.566C8.60303 20.6002 8.48584 20.5855 8.36865 20.522C8.25146 20.4537 8.17578 20.356 8.1416 20.2291C8.1123 20.107 8.13184 19.9874 8.2002 19.8702L10.3389 16.1495C10.4072 16.0274 10.5049 15.9493 10.6318 15.9151C10.7588 15.8809 10.8809 15.9005 10.998 15.9737C11.1104 16.0372 11.1812 16.1324 11.2104 16.2594C11.2397 16.3814 11.2227 16.5011 11.1592 16.6182L9.00586 20.3463ZM13.1221 18.2589C13.0586 18.3712 12.9634 18.4444 12.8364 18.4786C12.7095 18.5177 12.5874 18.5054 12.4702 18.442C12.3481 18.3736 12.27 18.276 12.2358 18.149C12.2065 18.0269 12.2261 17.9097 12.2944 17.7974L13.2466 16.1495C13.3149 16.0225 13.4102 15.942 13.5322 15.9078C13.6592 15.8736 13.7812 15.8907 13.8984 15.9591C14.0205 16.0274 14.0962 16.1251 14.1255 16.252C14.1597 16.3741 14.1401 16.4962 14.0669 16.6182L13.1221 18.2589ZM14.8286 20.3389C14.7603 20.4561 14.665 20.5318 14.543 20.566C14.4258 20.6002 14.3086 20.5831 14.1914 20.5147C14.0742 20.4464 14.001 20.3487 13.9717 20.2218C13.9424 20.0997 13.9595 19.9801 14.0229 19.8629L16.1689 16.1422C16.2373 16.0201 16.335 15.9444 16.4619 15.9151C16.5889 15.8809 16.7085 15.898 16.8208 15.9664C16.938 16.0347 17.0112 16.13 17.0405 16.252C17.0747 16.3741 17.0576 16.4937 16.9893 16.6109L14.8286 20.3389Z" fill="white"/>
</svg>
