<svg width="24" height="24" viewBox="0 0 24 24" fill="none" xmlns="http://www.w3.org/2000/svg">
<path d="M11.0571 19.8601C10.1489 19.8601 9.29688 19.6892 8.50098 19.3474C7.70508 19.0056 7.00684 18.5344 6.40625 17.9338C5.80566 17.3332 5.33447 16.635 4.99268 15.8391C4.65088 15.0432 4.47998 14.1911 4.47998 13.2829C4.47998 12.6042 4.57764 11.9548 4.77295 11.3347C4.97314 10.7146 5.25146 10.1433 5.60791 9.62083C5.96436 9.09837 6.38184 8.63695 6.86035 8.23656C7.33887 7.83128 7.85889 7.50414 8.42041 7.25511C8.60596 7.17699 8.76465 7.1599 8.89648 7.20384C9.0332 7.2429 9.12598 7.32835 9.1748 7.46019C9.22363 7.58714 9.20898 7.74095 9.13086 7.92162C9.01367 8.20482 8.91602 8.53441 8.83789 8.91039C8.76465 9.28148 8.72803 9.64037 8.72803 9.98705C8.72803 11.8035 9.22363 13.2097 10.2148 14.2058C11.2109 15.197 12.6147 15.6926 14.4263 15.6926C14.7778 15.6926 15.1318 15.6584 15.4883 15.5901C15.8496 15.5217 16.1548 15.4411 16.4038 15.3484C16.5649 15.2947 16.7065 15.2898 16.8286 15.3337C16.9507 15.3777 17.0312 15.4656 17.0703 15.5974C17.1094 15.7243 17.085 15.883 16.9971 16.0735C16.6699 16.7912 16.2109 17.4358 15.6201 18.0071C15.0342 18.5784 14.3506 19.03 13.5693 19.362C12.793 19.6941 11.9556 19.8601 11.0571 19.8601ZM16.6602 12.7849C16.582 12.7849 16.5186 12.7605 16.4697 12.7117C16.4209 12.6628 16.3916 12.6018 16.3818 12.5285C16.3184 12.0452 16.2524 11.6692 16.1841 11.4006C16.1206 11.1272 16.0181 10.9245 15.8765 10.7927C15.7349 10.656 15.52 10.5486 15.2319 10.4704C14.9487 10.3923 14.5532 10.302 14.0454 10.1994C13.8794 10.1702 13.7964 10.0798 13.7964 9.92845C13.7964 9.85521 13.8184 9.79417 13.8623 9.74535C13.9111 9.69164 13.9722 9.6599 14.0454 9.65013C14.5532 9.58177 14.9487 9.51341 15.2319 9.44505C15.52 9.37669 15.7349 9.27171 15.8765 9.13011C16.0181 8.98363 16.1206 8.77122 16.1841 8.4929C16.2524 8.2097 16.3184 7.82396 16.3818 7.33568C16.4014 7.1599 16.4941 7.07201 16.6602 7.07201C16.8213 7.07201 16.9141 7.16234 16.9385 7.343C16.9971 7.8264 17.0581 8.20238 17.1216 8.47093C17.1899 8.73949 17.2949 8.94212 17.4365 9.07884C17.583 9.21556 17.8003 9.32054 18.0884 9.39378C18.3813 9.46703 18.7769 9.55247 19.2749 9.65013C19.436 9.68431 19.5166 9.77708 19.5166 9.92845C19.5166 10.0847 19.4238 10.175 19.2383 10.1994C18.7451 10.2825 18.3569 10.3606 18.0737 10.4338C17.7954 10.5071 17.583 10.612 17.4365 10.7488C17.2949 10.8855 17.1899 11.093 17.1216 11.3713C17.0581 11.6496 16.9971 12.0305 16.9385 12.5139C16.9141 12.6946 16.8213 12.7849 16.6602 12.7849ZM13.1445 7.73119C13.0469 7.73119 12.9883 7.67992 12.9688 7.57738C12.915 7.27464 12.8662 7.04027 12.8223 6.87425C12.7783 6.70335 12.7124 6.57396 12.6245 6.48607C12.5415 6.3933 12.4121 6.32249 12.2363 6.27367C12.0605 6.22484 11.814 6.16869 11.4966 6.10521C11.394 6.0808 11.3428 6.0222 11.3428 5.92943C11.3428 5.83665 11.394 5.7805 11.4966 5.76097C11.814 5.69749 12.0581 5.64134 12.229 5.59251C12.4048 5.5388 12.5342 5.47044 12.6172 5.38744C12.7051 5.29955 12.771 5.17015 12.8149 4.99925C12.8589 4.82347 12.9102 4.58421 12.9688 4.28148C12.9883 4.18382 13.0469 4.13499 13.1445 4.13499C13.2373 4.13499 13.2935 4.18382 13.313 4.28148C13.3716 4.58421 13.4229 4.82103 13.4668 4.99193C13.5107 5.16283 13.5742 5.29222 13.6572 5.38011C13.7451 5.46312 13.8745 5.53148 14.0454 5.58519C14.2212 5.6389 14.4678 5.69749 14.7852 5.76097C14.8926 5.7805 14.9463 5.83665 14.9463 5.92943C14.9463 6.0222 14.8926 6.0808 14.7852 6.10521C14.4678 6.1638 14.2212 6.21751 14.0454 6.26634C13.8696 6.31517 13.7378 6.38353 13.6499 6.47142C13.5669 6.55931 13.5034 6.69115 13.4595 6.86693C13.4155 7.03783 13.3667 7.27464 13.313 7.57738C13.2935 7.67992 13.2373 7.73119 13.1445 7.73119Z" fill="white"/>
</svg>
