<svg width="24" height="24" viewBox="0 0 24 24" fill="none" xmlns="http://www.w3.org/2000/svg">
<path d="M9.68329 14.8454C9.53094 14.8454 9.40009 14.7927 9.29071 14.6872C9.18524 14.5778 9.13251 14.447 9.13251 14.2946C9.13251 14.1462 9.18524 14.0173 9.29071 13.9079C9.40009 13.7985 9.53094 13.7438 9.68329 13.7438C9.83563 13.7438 9.96649 13.7985 10.0759 13.9079C10.1852 14.0173 10.2399 14.1462 10.2399 14.2946C10.2399 14.447 10.1852 14.5778 10.0759 14.6872C9.96649 14.7927 9.83563 14.8454 9.68329 14.8454ZM8.71063 12.5485C8.56219 12.5485 8.43329 12.4938 8.32391 12.3845C8.21454 12.2751 8.15985 12.1462 8.15985 11.9977C8.15985 11.8493 8.21454 11.7204 8.32391 11.611C8.43329 11.5016 8.56219 11.447 8.71063 11.447C8.86688 11.447 8.99774 11.5016 9.10321 11.611C9.21259 11.7204 9.26727 11.8493 9.26727 11.9977C9.26727 12.1462 9.21259 12.2751 9.10321 12.3845C8.99774 12.4938 8.86688 12.5485 8.71063 12.5485ZM9.68329 10.2516C9.53094 10.2516 9.40009 10.197 9.29071 10.0876C9.18524 9.9782 9.13251 9.8493 9.13251 9.70086C9.13251 9.54852 9.18524 9.41961 9.29071 9.31414C9.40009 9.20477 9.53094 9.15008 9.68329 9.15008C9.83563 9.15008 9.96649 9.20477 10.0759 9.31414C10.1852 9.41961 10.2399 9.54852 10.2399 9.70086C10.2399 9.8493 10.1852 9.9782 10.0759 10.0876C9.96649 10.197 9.83563 10.2516 9.68329 10.2516ZM14.3122 10.2516C14.1638 10.2516 14.0349 10.197 13.9255 10.0876C13.8161 9.9782 13.7614 9.8493 13.7614 9.70086C13.7614 9.54852 13.8161 9.41961 13.9255 9.31414C14.0349 9.20477 14.1638 9.15008 14.3122 9.15008C14.4645 9.15008 14.5934 9.20477 14.6989 9.31414C14.8083 9.41961 14.863 9.54852 14.863 9.70086C14.863 9.8493 14.8083 9.9782 14.6989 10.0876C14.5934 10.197 14.4645 10.2516 14.3122 10.2516ZM15.2849 12.5485C15.1325 12.5485 15.0016 12.4938 14.8923 12.3845C14.7868 12.2751 14.7341 12.1462 14.7341 11.9977C14.7341 11.8493 14.7868 11.7204 14.8923 11.611C15.0016 11.5016 15.1325 11.447 15.2849 11.447C15.4333 11.447 15.5622 11.5016 15.6716 11.611C15.7809 11.7204 15.8356 11.8493 15.8356 11.9977C15.8356 12.1462 15.7809 12.2751 15.6716 12.3845C15.5622 12.4938 15.4333 12.5485 15.2849 12.5485ZM14.3122 14.8454C14.1638 14.8454 14.0349 14.7927 13.9255 14.6872C13.8161 14.5778 13.7614 14.447 13.7614 14.2946C13.7614 14.1462 13.8161 14.0173 13.9255 13.9079C14.0349 13.7985 14.1638 13.7438 14.3122 13.7438C14.4645 13.7438 14.5934 13.7985 14.6989 13.9079C14.8083 14.0173 14.863 14.1462 14.863 14.2946C14.863 14.447 14.8083 14.5778 14.6989 14.6872C14.5934 14.7927 14.4645 14.8454 14.3122 14.8454ZM11.9977 13.4333C11.7204 13.4333 11.4899 13.3415 11.3063 13.1579C11.1227 12.9743 11.0309 12.7419 11.0309 12.4606C11.0309 12.4098 11.0368 12.3434 11.0485 12.2614C11.0602 12.1755 11.072 12.0973 11.0837 12.027L11.6872 8.81023C11.7263 8.62273 11.8298 8.52898 11.9977 8.52898C12.1696 8.52898 12.2751 8.62273 12.3141 8.81023L12.9118 12.027C12.9274 12.0973 12.9411 12.1755 12.9528 12.2614C12.9645 12.3434 12.9704 12.4098 12.9704 12.4606C12.9704 12.7419 12.8786 12.9743 12.695 13.1579C12.5114 13.3415 12.279 13.4333 11.9977 13.4333ZM11.9977 18.0505C11.1618 18.0505 10.3786 17.8923 9.64813 17.5759C8.91766 17.2634 8.27509 16.8298 7.7204 16.2751C7.16571 15.7243 6.73016 15.0837 6.41376 14.3532C6.10126 13.6188 5.94501 12.8337 5.94501 11.9977C5.94501 11.1618 6.10126 10.3786 6.41376 9.64812C6.73016 8.91375 7.16571 8.26922 7.7204 7.71453C8.27509 7.15984 8.91766 6.72625 9.64813 6.41375C10.3786 6.10125 11.1618 5.945 11.9977 5.945C12.8337 5.945 13.6169 6.10125 14.3474 6.41375C15.0817 6.72625 15.7263 7.15984 16.2809 7.71453C16.8356 8.26922 17.2692 8.91375 17.5817 9.64812C17.8981 10.3786 18.0563 11.1618 18.0563 11.9977C18.0563 12.8337 17.8981 13.6188 17.5817 14.3532C17.2692 15.0837 16.8356 15.7243 16.2809 16.2751C15.7263 16.8298 15.0817 17.2634 14.3474 17.5759C13.6169 17.8923 12.8337 18.0505 11.9977 18.0505ZM11.9977 16.8552C12.6696 16.8552 13.2985 16.7282 13.8845 16.4743C14.4704 16.2243 14.986 15.8766 15.4313 15.4313C15.8806 14.986 16.2302 14.4704 16.4802 13.8845C16.7302 13.2985 16.8552 12.6696 16.8552 11.9977C16.8552 11.3259 16.7302 10.697 16.4802 10.111C16.2302 9.52117 15.8806 9.00555 15.4313 8.56414C14.986 8.11883 14.4704 7.77117 13.8845 7.52117C13.2985 7.26727 12.6696 7.14031 11.9977 7.14031C11.3298 7.14031 10.7009 7.26727 10.111 7.52117C9.52509 7.77117 9.00946 8.11883 8.56415 8.56414C8.11884 9.00555 7.76923 9.52117 7.51532 10.111C7.26532 10.697 7.14032 11.3259 7.14032 11.9977C7.14032 12.6696 7.26532 13.2985 7.51532 13.8845C7.76923 14.4704 8.11884 14.986 8.56415 15.4313C9.00946 15.8766 9.52509 16.2243 10.111 16.4743C10.7009 16.7282 11.3298 16.8552 11.9977 16.8552Z" fill="white"/>
</svg>
