<svg width="24" height="24" viewBox="0 0 24 24" fill="none" xmlns="http://www.w3.org/2000/svg">
<path d="M15.9744 16.0573C15.9744 16.2966 15.95 16.5285 15.9011 16.7531C15.8572 16.9777 15.7937 17.1926 15.7107 17.3977H8.29126C8.20825 17.1926 8.14233 16.9777 8.09351 16.7531C8.04956 16.5285 8.02759 16.2966 8.02759 16.0573C8.02759 15.5105 8.13013 14.9978 8.33521 14.5193C8.54517 14.0407 8.83081 13.6184 9.19214 13.2522C9.55835 12.886 9.98071 12.6003 10.4592 12.3952C10.9426 12.1853 11.4578 12.0803 12.0046 12.0803C12.5466 12.0803 13.0569 12.1853 13.5354 12.3952C14.0188 12.6003 14.4412 12.886 14.8025 13.2522C15.1687 13.6184 15.4543 14.0407 15.6594 14.5193C15.8694 14.9978 15.9744 15.5105 15.9744 16.0573ZM4.25562 16.4382C4.05542 16.4382 3.88696 16.3747 3.75024 16.2478C3.61841 16.1208 3.55249 15.967 3.55249 15.7863C3.55249 15.6106 3.61841 15.4592 3.75024 15.3322C3.88208 15.2053 4.05054 15.1418 4.25562 15.1418H5.94751C6.15259 15.1418 6.32104 15.2053 6.45288 15.3322C6.58472 15.4592 6.65308 15.6106 6.65796 15.7863C6.65796 15.967 6.5896 16.1208 6.45288 16.2478C6.32104 16.3747 6.15259 16.4382 5.94751 16.4382H4.25562ZM7.25854 12.2487L6.05737 11.0549C5.91577 10.9084 5.84253 10.7424 5.83765 10.5569C5.83765 10.3713 5.90112 10.2175 6.02808 10.0954C6.15503 9.97335 6.30884 9.91232 6.4895 9.91232C6.67505 9.91232 6.83862 9.98556 6.98022 10.132L8.1814 11.3259C8.32788 11.4675 8.40112 11.6311 8.40112 11.8166C8.40601 12.0022 8.34497 12.1584 8.21802 12.2854C8.09595 12.4172 7.9397 12.4807 7.74927 12.4758C7.56372 12.466 7.40015 12.3903 7.25854 12.2487ZM15.7839 12.2854C15.657 12.1633 15.5935 12.0095 15.5935 11.8239C15.5984 11.6335 15.6741 11.4675 15.8206 11.3259L17.0217 10.132C17.1633 9.98556 17.3269 9.91232 17.5125 9.91232C17.698 9.90744 17.8518 9.96847 17.9739 10.0954C18.1008 10.2224 18.1619 10.3786 18.157 10.5642C18.157 10.7448 18.0862 10.9084 17.9446 11.0549L16.7434 12.2487C16.6018 12.3903 16.4382 12.4636 16.2527 12.4685C16.0671 12.4734 15.9109 12.4123 15.7839 12.2854ZM18.0544 16.4382C17.8591 16.4382 17.6931 16.3747 17.5564 16.2478C17.4197 16.1208 17.3489 15.967 17.344 15.7863C17.344 15.6106 17.4124 15.4592 17.5491 15.3322C17.6858 15.2053 17.8542 15.1418 18.0544 15.1418H19.7463C19.9514 15.1418 20.1199 15.2053 20.2517 15.3322C20.3835 15.4592 20.4495 15.6106 20.4495 15.7863C20.4495 15.967 20.3835 16.1208 20.2517 16.2478C20.1199 16.3747 19.9514 16.4382 19.7463 16.4382H18.0544Z" fill="white"/>
<path d="M2.82739 19.5071C2.97388 19.6487 3.14478 19.7195 3.34009 19.7195H20.6619C20.8572 19.7195 21.0256 19.6487 21.1672 19.5071C21.3137 19.3704 21.387 19.2092 21.387 19.0237C21.387 18.8333 21.3137 18.6697 21.1672 18.533C21.0256 18.3962 20.8572 18.3279 20.6619 18.3279H3.34009C3.14478 18.3279 2.97388 18.3962 2.82739 18.533C2.68579 18.6697 2.61499 18.8333 2.61499 19.0237C2.61499 19.2092 2.68579 19.3704 2.82739 19.5071Z" fill="white"/>
<path d="M12.5648 8.74076L13.074 8.08862L13.9163 7.21704C13.9749 7.15356 14.0432 7.10229 14.1213 7.06323C14.1995 7.02417 14.2825 7.00464 14.3704 7.00464C14.5315 7.00464 14.6658 7.05591 14.7732 7.15845C14.8806 7.26099 14.9343 7.39282 14.9343 7.55396C14.9343 7.64673 14.9148 7.72974 14.8757 7.80298C14.8416 7.87622 14.7878 7.94458 14.7146 8.00806L12.4587 10.1174C12.3074 10.259 12.1584 10.3298 12.012 10.3298C11.8606 10.3298 11.7068 10.259 11.5505 10.1174L9.29468 8.00806C9.22632 7.94458 9.17261 7.87622 9.13354 7.80298C9.09448 7.72974 9.07495 7.64673 9.07495 7.55396C9.07495 7.39282 9.12866 7.26099 9.23608 7.15845C9.34351 7.05591 9.48022 7.00464 9.64624 7.00464C9.73413 7.00464 9.8147 7.02417 9.88794 7.06323C9.96606 7.10229 10.0369 7.15356 10.1003 7.21704L11.0012 8.14722L11.4373 8.71699L11.3528 7.57593L11.3455 4.97583C11.3455 4.7854 11.4089 4.62183 11.5359 4.48511C11.6677 4.34839 11.824 4.28003 12.0046 4.28003C12.1804 4.28003 12.3318 4.34839 12.4587 4.48511C12.5906 4.62183 12.6565 4.7854 12.6565 4.97583V7.57593L12.5648 8.74076Z" fill="white"/>
</svg>
