<svg width="24" height="24" viewBox="0 0 24 24" fill="none" xmlns="http://www.w3.org/2000/svg">
<path d="M15.7731 17.1785C15.2966 17.1785 14.863 17.0652 14.4723 16.8387C14.0856 16.6121 13.7751 16.3074 13.5407 15.9246C13.3102 15.5457 13.195 15.1219 13.195 14.6531C13.195 14.2664 13.2712 13.8875 13.4235 13.5164C13.5798 13.1453 13.7419 12.8055 13.9098 12.4969L15.2282 10.0301C15.3493 9.80351 15.5309 9.69023 15.7731 9.69023C16.0192 9.69023 16.2009 9.80351 16.318 10.0301L17.6423 12.4969C17.8063 12.8055 17.9665 13.1453 18.1227 13.5164C18.279 13.8875 18.3571 14.2664 18.3571 14.6531C18.3571 15.1219 18.2419 15.5457 18.0114 15.9246C17.7809 16.3074 17.4704 16.6121 17.0798 16.8387C16.6891 17.0652 16.2536 17.1785 15.7731 17.1785ZM8.07977 10.1121C7.69696 10.1121 7.32977 10.0652 6.97821 9.97148C6.63055 9.87773 6.28875 9.73515 5.95282 9.54375C5.77703 9.43828 5.67547 9.30742 5.64813 9.15117C5.62469 8.99492 5.65203 8.85429 5.73016 8.72929C5.80438 8.62383 5.90399 8.55156 6.02899 8.5125C6.15399 8.47343 6.2868 8.49297 6.42742 8.57109C6.71649 8.74297 6.99188 8.86406 7.2536 8.93437C7.51922 9.00078 7.79461 9.03398 8.07977 9.03398C8.55633 9.03398 9.00164 8.95976 9.41571 8.81133C9.82977 8.66289 10.2302 8.47929 10.6169 8.26054C11.0075 8.04179 11.402 7.82304 11.8005 7.60429C12.2028 7.38164 12.6286 7.19609 13.0778 7.04765C13.527 6.89922 14.0212 6.825 14.5602 6.825C14.9391 6.825 15.3044 6.87187 15.6559 6.96562C16.0075 7.05937 16.3493 7.20195 16.6813 7.39336C16.8571 7.49883 16.9587 7.63164 16.986 7.79179C17.0134 7.94804 16.986 8.08867 16.904 8.21367C16.8298 8.31523 16.7282 8.38554 16.5993 8.42461C16.4743 8.45976 16.3434 8.43828 16.2067 8.36015C15.9138 8.19218 15.6364 8.075 15.3747 8.00859C15.113 7.93828 14.8415 7.90312 14.5602 7.90312C14.072 7.90312 13.6188 7.97734 13.2009 8.12578C12.7829 8.27422 12.3786 8.45976 11.988 8.68242C11.5973 8.90117 11.2009 9.11992 10.7985 9.33867C10.4001 9.55742 9.97821 9.74101 9.53289 9.88945C9.09149 10.0379 8.60711 10.1121 8.07977 10.1121ZM8.08563 13.2586C7.70672 13.2586 7.34149 13.2117 6.98992 13.118C6.63836 13.0203 6.29461 12.8758 5.95867 12.6844C5.7868 12.5789 5.68719 12.448 5.65985 12.2918C5.6325 12.1355 5.65985 11.9949 5.74188 11.8699C5.81219 11.7645 5.90985 11.6922 6.03485 11.6531C6.16375 11.6141 6.29657 11.6336 6.43328 11.7117C6.72625 11.8836 7.0036 12.0047 7.26532 12.075C7.52703 12.1453 7.80047 12.1805 8.08563 12.1805C8.55047 12.1805 8.98211 12.1102 9.38055 11.9695C9.78289 11.8289 10.1696 11.6551 10.5407 11.448C10.9157 11.2371 11.2927 11.0262 11.6716 10.8152C12.0544 10.6004 12.4606 10.4148 12.8903 10.2586C13.3239 10.0984 13.7985 10.0047 14.3141 9.97734C14.2087 10.1766 14.1013 10.3758 13.9919 10.575C13.8825 10.7742 13.7751 10.9754 13.6696 11.1785C13.2829 11.2566 12.9138 11.3777 12.5622 11.5418C12.2106 11.7059 11.863 11.8855 11.5192 12.0809C11.1794 12.2762 10.8298 12.4637 10.4704 12.6434C10.1149 12.8191 9.74188 12.9656 9.35125 13.0828C8.96063 13.2 8.53875 13.2586 8.08563 13.2586ZM8.07977 16.3992C7.69696 16.3992 7.32977 16.3504 6.97821 16.2527C6.63055 16.159 6.28875 16.0164 5.95282 15.825C5.77703 15.7195 5.67547 15.5887 5.64813 15.4324C5.62469 15.2762 5.65203 15.1355 5.73016 15.0105C5.80438 14.9051 5.90399 14.8328 6.02899 14.7937C6.15399 14.7547 6.2868 14.7742 6.42742 14.8523C6.71649 15.0242 6.99188 15.1453 7.2536 15.2156C7.51922 15.2859 7.79461 15.3211 8.07977 15.3211C8.50946 15.3211 8.9118 15.2605 9.2868 15.1395C9.6618 15.0145 10.0251 14.8582 10.3766 14.6707C10.7282 14.4832 11.0798 14.2879 11.4313 14.0848C11.7829 13.8816 12.152 13.702 12.5388 13.5457C12.4802 13.7449 12.4352 13.9578 12.404 14.1844C12.3727 14.407 12.3688 14.6004 12.3923 14.7645C12.0563 14.9246 11.7223 15.0984 11.3903 15.2859C11.0622 15.4695 10.7263 15.6473 10.3825 15.8191C10.0427 15.9871 9.68133 16.1258 9.29852 16.2352C8.91961 16.3445 8.51336 16.3992 8.07977 16.3992Z" fill="white"/>
</svg>
