<svg width="90" height="54" viewBox="0 0 90 54" fill="none" xmlns="http://www.w3.org/2000/svg">
<foreignObject x="0" y="-4" width="90" height="58"><div xmlns="http://www.w3.org/1999/xhtml" style="backdrop-filter:blur(2px);clip-path:url(#bgblur_0_1_1330_clip_path);height:100%;width:100%"></div></foreignObject><g filter="url(#filter0_d_1_1330)" data-figma-bg-blur-radius="4">
<rect x="5" y="1" width="80" height="44" rx="22" fill="url(#paint0_linear_1_1330)" shape-rendering="crispEdges"/>
<rect x="4.5" y="0.5" width="81" height="45" rx="22.5" stroke="white" stroke-opacity="0.52" shape-rendering="crispEdges"/>
<path d="M29.0779 23.8487L29.8996 26.9974C30.1577 27.9693 31.1581 28.1454 31.5902 27.4081L36.1825 19.5727C36.6578 18.7618 35.9824 17.9344 35.091 18.176L26.3298 20.4623C25.5029 20.6781 25.4024 21.6945 26.266 22.2007L29.0779 23.8487Z" fill="#FCFCFC"/>
<circle cx="46" cy="23" r="3" fill="white" fill-opacity="0.52"/>
<circle cx="60" cy="23" r="3" fill="white" fill-opacity="0.52"/>
</g>
<defs>
<filter id="filter0_d_1_1330" x="0" y="-4" width="90" height="58" filterUnits="userSpaceOnUse" color-interpolation-filters="sRGB">
<feFlood flood-opacity="0" result="BackgroundImageFix"/>
<feColorMatrix in="SourceAlpha" type="matrix" values="0 0 0 0 0 0 0 0 0 0 0 0 0 0 0 0 0 0 127 0" result="hardAlpha"/>
<feOffset dy="4"/>
<feGaussianBlur stdDeviation="2"/>
<feComposite in2="hardAlpha" operator="out"/>
<feColorMatrix type="matrix" values="0 0 0 0 0 0 0 0 0 0 0 0 0 0 0 0 0 0 0.16 0"/>
<feBlend mode="normal" in2="BackgroundImageFix" result="effect1_dropShadow_1_1330"/>
<feBlend mode="normal" in="SourceGraphic" in2="effect1_dropShadow_1_1330" result="shape"/>
</filter>
<clipPath id="bgblur_0_1_1330_clip_path" transform="translate(0 4)"><rect x="5" y="1" width="80" height="44" rx="22"/>
</clipPath><linearGradient id="paint0_linear_1_1330" x1="45" y1="1" x2="45" y2="45" gradientUnits="userSpaceOnUse">
<stop stop-color="#0C2741" stop-opacity="0"/>
<stop offset="1" stop-color="#0C2741" stop-opacity="0.52"/>
</linearGradient>
</defs>
</svg>
