<svg width="24" height="24" viewBox="0 0 24 24" fill="none" xmlns="http://www.w3.org/2000/svg">
<path d="M5.16496 9.89212C4.98475 9.94569 4.8289 9.93839 4.69741 9.8702C4.56591 9.79715 4.48068 9.68757 4.44171 9.54146C4.39788 9.40022 4.41006 9.26385 4.47824 9.13235C4.54643 9.00085 4.66575 8.91319 4.83621 8.86935C5.38656 8.69889 5.95882 8.56496 6.553 8.46755C7.15205 8.37014 7.74866 8.32144 8.34284 8.32144C8.80552 8.32144 9.23411 8.33849 9.62861 8.37258C10.0231 8.40667 10.4054 8.4432 10.7756 8.48216C11.1506 8.51625 11.5378 8.5333 11.9371 8.5333C12.2781 8.5333 12.5484 8.43833 12.7481 8.24839C12.9526 8.05844 13.0549 7.80762 13.0549 7.49592C13.0549 7.17935 12.955 6.92853 12.7554 6.74346C12.5605 6.55838 12.3195 6.46585 12.0321 6.46585C11.8227 6.46585 11.6303 6.52673 11.455 6.64848C11.2845 6.76537 11.1603 6.91148 11.0824 7.08681C10.9947 7.24753 10.8778 7.34981 10.7317 7.39364C10.5856 7.43748 10.4468 7.42287 10.3153 7.34981C10.1741 7.27676 10.0889 7.17204 10.0596 7.03568C10.0304 6.89444 10.0499 6.75563 10.1181 6.61926C10.2837 6.26373 10.5394 5.96907 10.8852 5.7353C11.2309 5.50152 11.6133 5.38464 12.0321 5.38464C12.4217 5.38464 12.7748 5.47717 13.0914 5.66224C13.4128 5.84245 13.6661 6.09083 13.8512 6.4074C14.0411 6.72397 14.1361 7.08681 14.1361 7.49592C14.1361 7.89042 14.046 8.24839 13.8658 8.56983C13.6856 8.89127 13.4299 9.14453 13.0987 9.3296C12.7724 9.51467 12.3852 9.60721 11.9371 9.60721C11.5134 9.60721 11.1116 9.59016 10.7317 9.55607C10.3567 9.52198 9.97684 9.48788 9.59208 9.45379C9.20732 9.41483 8.79091 9.39535 8.34284 9.39535C7.27624 9.39535 6.21695 9.56094 5.16496 9.89212ZM16.62 13.3914C16.0014 13.3914 15.3926 13.3281 14.7936 13.2015C14.1945 13.0749 13.5906 12.9288 12.9818 12.7632C12.3779 12.5927 11.7521 12.4442 11.1043 12.3175C10.4566 12.1909 9.76985 12.1276 9.04417 12.1276C8.32823 12.1276 7.65369 12.1787 7.02055 12.281C6.38741 12.3833 5.76888 12.5464 5.16496 12.7705C4.98962 12.8289 4.83377 12.8241 4.69741 12.7559C4.56591 12.6877 4.48068 12.5781 4.44171 12.4271C4.39788 12.2859 4.41006 12.152 4.47824 12.0253C4.5513 11.8938 4.67062 11.7989 4.83621 11.7404C5.4937 11.5164 6.17068 11.3459 6.86713 11.229C7.56359 11.1073 8.28927 11.0464 9.04417 11.0464C9.77959 11.0464 10.4833 11.1121 11.1555 11.2436C11.8276 11.3703 12.4753 11.5164 13.0987 11.682C13.7221 11.8476 14.326 11.9961 14.9105 12.1276C15.4949 12.2542 16.0647 12.3175 16.62 12.3175C17.1947 12.3175 17.6525 12.1714 17.9934 11.8792C18.3343 11.587 18.5048 11.2071 18.5048 10.7396C18.5048 10.4327 18.4366 10.1624 18.3002 9.92865C18.1639 9.69 17.9763 9.50493 17.7377 9.37343C17.4991 9.24193 17.2361 9.17618 16.9487 9.17618C16.7101 9.17618 16.4885 9.22732 16.2839 9.3296C16.0794 9.43187 15.9065 9.57311 15.7652 9.75332C15.624 9.93352 15.5314 10.1405 15.4876 10.3743C15.4438 10.5594 15.3585 10.6957 15.2319 10.7834C15.1102 10.8662 14.9714 10.8905 14.8155 10.8564C14.6743 10.8272 14.5647 10.7493 14.4868 10.6227C14.4137 10.496 14.3942 10.3499 14.4283 10.1843C14.5014 9.78984 14.6548 9.43675 14.8886 9.12504C15.1223 8.80847 15.4146 8.56009 15.7652 8.37988C16.1208 8.19481 16.5152 8.10228 16.9487 8.10228C17.4357 8.10228 17.8789 8.21673 18.2783 8.44563C18.6777 8.67454 18.9942 8.98868 19.228 9.38804C19.4667 9.78254 19.586 10.233 19.586 10.7396C19.586 11.2558 19.4594 11.7136 19.2061 12.113C18.9528 12.5124 18.6022 12.8265 18.1541 13.0554C17.7109 13.2794 17.1995 13.3914 16.62 13.3914ZM11.9444 18.6149C11.399 18.6149 10.946 18.4444 10.5856 18.1035C10.2252 17.7674 10.0012 17.3535 9.91352 16.8616C9.87456 16.696 9.88917 16.545 9.95736 16.4086C10.0255 16.2722 10.1473 16.1894 10.3226 16.1602C10.4882 16.1359 10.6295 16.17 10.7463 16.2625C10.8632 16.3502 10.9387 16.4695 10.9728 16.6205C11.0313 16.9078 11.1408 17.1319 11.3016 17.2926C11.4672 17.4582 11.6814 17.541 11.9444 17.541C12.2172 17.541 12.4485 17.4509 12.6385 17.2707C12.8333 17.0953 12.9307 16.8494 12.9307 16.5328C12.9307 16.0166 12.5873 15.6099 11.9006 15.3128C11.2139 15.0108 10.2204 14.8598 8.91998 14.8598C8.26735 14.8598 7.62203 14.9134 6.98402 15.0206C6.35088 15.1277 5.74452 15.286 5.16496 15.4954C4.98962 15.5539 4.83377 15.549 4.69741 15.4808C4.56591 15.4078 4.48068 15.2982 4.44171 15.1521C4.39788 15.0108 4.41006 14.8769 4.47824 14.7503C4.5513 14.6188 4.67062 14.5238 4.83621 14.4654C5.45961 14.2511 6.12685 14.083 6.83791 13.9613C7.54898 13.8395 8.243 13.7786 8.91998 13.7786C10.5613 13.7786 11.8178 14.0173 12.6896 14.4946C13.5663 14.9719 14.0046 15.6513 14.0046 16.5328C14.0046 16.9419 13.9145 17.3023 13.7343 17.614C13.5541 17.9257 13.3081 18.1692 12.9964 18.3446C12.6847 18.5248 12.3341 18.6149 11.9444 18.6149Z" fill="white"/>
</svg>
