<svg width="24" height="24" viewBox="0 0 24 24" fill="none" xmlns="http://www.w3.org/2000/svg">
<path d="M11.1264 19.5006C10.6204 19.5006 10.1454 19.4074 9.70159 19.221C9.26218 19.0346 8.87603 18.7749 8.54314 18.442C8.21025 18.1091 7.94837 17.723 7.75752 17.2836C7.5711 16.8486 7.47789 16.3803 7.47789 15.8788C7.47789 15.3595 7.57998 14.8757 7.78415 14.4274C7.99276 13.9791 8.29458 13.573 8.68961 13.209C8.76062 13.1424 8.80501 13.0847 8.82276 13.0359C8.84496 12.9826 8.85605 12.9072 8.85605 12.8095V6.94402C8.85605 6.46022 8.95148 6.03634 9.14234 5.67238C9.33319 5.30398 9.59951 5.0177 9.94127 4.81353C10.283 4.60492 10.6781 4.50061 11.1264 4.50061C11.5702 4.50061 11.9608 4.60492 12.2981 4.81353C12.6355 5.0177 12.8995 5.30398 13.0904 5.67238C13.2813 6.03634 13.3767 6.46022 13.3767 6.94402V12.8095C13.3767 12.9072 13.3856 12.9826 13.4033 13.0359C13.4255 13.0847 13.4721 13.1424 13.5431 13.209C13.9426 13.573 14.2444 13.9791 14.4486 14.4274C14.6528 14.8757 14.7549 15.3595 14.7549 15.8788C14.7549 16.3803 14.6594 16.8486 14.4686 17.2836C14.2822 17.723 14.0225 18.1091 13.6896 18.442C13.3567 18.7749 12.9706 19.0346 12.5312 19.221C12.0962 19.4074 11.6279 19.5006 11.1264 19.5006ZM11.1264 18.3621C11.5791 18.3621 11.9919 18.2489 12.3647 18.0226C12.742 17.7962 13.0416 17.4944 13.2635 17.1171C13.4899 16.7398 13.6031 16.3226 13.6031 15.8655C13.6031 15.4394 13.5076 15.0488 13.3168 14.6937C13.1259 14.3386 12.8552 14.0457 12.5045 13.8149C12.4024 13.7438 12.3292 13.6728 12.2848 13.6018C12.2449 13.5264 12.2249 13.4198 12.2249 13.2822V6.98397C12.2249 6.5845 12.1206 6.26271 11.912 6.01859C11.7078 5.77447 11.4459 5.65241 11.1264 5.65241C10.7979 5.65241 10.5294 5.77447 10.3208 6.01859C10.1166 6.26271 10.0145 6.5845 10.0145 6.98397V13.2822C10.0145 13.4198 9.99232 13.5264 9.94793 13.6018C9.90354 13.6728 9.83031 13.7438 9.72822 13.8149C9.38202 14.0457 9.11127 14.3386 8.91597 14.6937C8.72512 15.0488 8.62969 15.4394 8.62969 15.8655C8.62969 16.3226 8.74065 16.7398 8.96258 17.1171C9.18894 17.4944 9.49076 17.7962 9.86804 18.0226C10.2453 18.2489 10.6648 18.3621 11.1264 18.3621ZM11.1197 17.4633C10.8268 17.4633 10.5582 17.3901 10.3141 17.2436C10.0744 17.1016 9.88135 16.9085 9.73488 16.6644C9.59285 16.4203 9.52183 16.1517 9.52183 15.8588C9.52183 15.5525 9.60172 15.2774 9.76151 15.0332C9.9213 14.7891 10.1277 14.596 10.3807 14.454C10.4872 14.3963 10.5604 14.3364 10.6004 14.2742C10.6448 14.2121 10.667 14.1011 10.667 13.9414V12.6897C10.667 12.5299 10.7091 12.4034 10.7935 12.3102C10.8822 12.2126 10.991 12.1637 11.1197 12.1637C11.244 12.1637 11.3505 12.2126 11.4393 12.3102C11.528 12.4034 11.5724 12.5299 11.5724 12.6897V13.9414C11.5724 14.1011 11.5924 14.2121 11.6324 14.2742C11.6767 14.3364 11.7522 14.3963 11.8587 14.454C12.1117 14.596 12.3159 14.7891 12.4712 15.0332C12.631 15.2774 12.7109 15.5525 12.7109 15.8588C12.7109 16.1517 12.6377 16.4203 12.4912 16.6644C12.3492 16.9085 12.1583 17.1016 11.9186 17.2436C11.679 17.3901 11.4126 17.4633 11.1197 17.4633ZM14.6417 7.09049C14.5218 7.09049 14.422 7.05054 14.3421 6.97065C14.2666 6.89076 14.2289 6.79533 14.2289 6.68437C14.2289 6.57784 14.2666 6.48463 14.3421 6.40474C14.422 6.32041 14.5218 6.27824 14.6417 6.27824H16.1064C16.2307 6.27824 16.3305 6.32041 16.406 6.40474C16.4814 6.48463 16.5192 6.57784 16.5192 6.68437C16.5192 6.79533 16.4814 6.89076 16.406 6.97065C16.3305 7.05054 16.2307 7.09049 16.1064 7.09049H14.6417ZM14.6417 8.94136C14.5218 8.94136 14.422 8.90141 14.3421 8.82152C14.2666 8.73718 14.2289 8.64176 14.2289 8.53523C14.2289 8.42427 14.2666 8.32884 14.3421 8.24895C14.422 8.16905 14.5218 8.12911 14.6417 8.12911H16.1064C16.2307 8.12911 16.3305 8.16905 16.406 8.24895C16.4814 8.32884 16.5192 8.42427 16.5192 8.53523C16.5192 8.64176 16.4814 8.73718 16.406 8.82152C16.3305 8.90141 16.2307 8.94136 16.1064 8.94136H14.6417ZM14.6417 10.7989C14.5218 10.7989 14.422 10.7589 14.3421 10.679C14.2666 10.5947 14.2289 10.4993 14.2289 10.3928C14.2289 10.2774 14.2666 10.1797 14.3421 10.0998C14.422 10.0199 14.5218 9.97997 14.6417 9.97997H16.1064C16.2307 9.97997 16.3305 10.0199 16.406 10.0998C16.4814 10.1797 16.5192 10.2774 16.5192 10.3928C16.5192 10.4993 16.4814 10.5947 16.406 10.679C16.3305 10.7589 16.2307 10.7989 16.1064 10.7989H14.6417ZM14.6417 12.6497C14.5218 12.6497 14.422 12.6098 14.3421 12.5299C14.2666 12.45 14.2289 12.3568 14.2289 12.2503C14.2289 12.1349 14.2666 12.0372 14.3421 11.9573C14.422 11.8774 14.5218 11.8375 14.6417 11.8375H16.1064C16.2307 11.8375 16.3305 11.8774 16.406 11.9573C16.4814 12.0372 16.5192 12.1349 16.5192 12.2503C16.5192 12.3568 16.4814 12.45 16.406 12.5299C16.3305 12.6098 16.2307 12.6497 16.1064 12.6497H14.6417Z" fill="white"/>
</svg>
