<svg width="24" height="24" viewBox="0 0 24 24" fill="none" xmlns="http://www.w3.org/2000/svg">
<path d="M12.0018 6.83061C11.7968 6.83061 11.6234 6.75737 11.4818 6.61089C11.3402 6.4644 11.2694 6.29106 11.2694 6.09087V4.56743C11.2694 4.36723 11.3402 4.19633 11.4818 4.05473C11.6234 3.90825 11.7968 3.83501 12.0018 3.83501C12.1971 3.83501 12.3656 3.90825 12.5072 4.05473C12.6537 4.19633 12.7269 4.36723 12.7269 4.56743V6.09087C12.7269 6.29106 12.6537 6.4644 12.5072 6.61089C12.3656 6.75737 12.1971 6.83061 12.0018 6.83061ZM15.6493 8.35405C15.5077 8.21733 15.4369 8.04643 15.4369 7.84135C15.4369 7.63628 15.5077 7.46294 15.6493 7.32133L16.7333 6.23735C16.87 6.09575 17.0409 6.02495 17.246 6.02495C17.451 6.02007 17.6244 6.08842 17.766 6.23003C17.9076 6.37163 17.9784 6.54497 17.9784 6.75005C17.9784 6.95512 17.9076 7.12846 17.766 7.27007L16.6893 8.35405C16.5477 8.50053 16.3744 8.57378 16.1693 8.57378C15.9642 8.56889 15.7909 8.49565 15.6493 8.35405ZM17.1581 12.0015C17.1581 11.8013 17.2289 11.6304 17.3705 11.4888C17.517 11.3423 17.6927 11.2691 17.8978 11.2691H19.4139C19.6141 11.2691 19.785 11.3423 19.9266 11.4888C20.0731 11.6304 20.1464 11.8013 20.1464 12.0015C20.1464 12.2017 20.0731 12.3726 19.9266 12.5142C19.785 12.6558 19.6141 12.7266 19.4139 12.7266H17.8978C17.6927 12.7266 17.517 12.6558 17.3705 12.5142C17.2289 12.3726 17.1581 12.2017 17.1581 12.0015ZM15.6493 15.649C15.786 15.5123 15.9569 15.4439 16.162 15.4439C16.3671 15.4439 16.5404 15.5123 16.682 15.649L17.766 16.733C17.9076 16.8697 17.9784 17.0406 17.9784 17.2457C17.9784 17.4507 17.91 17.6241 17.7733 17.7657C17.6317 17.9024 17.4584 17.9707 17.2533 17.9707C17.0482 17.9756 16.8773 17.9122 16.7406 17.7803L15.6493 16.6817C15.5077 16.545 15.4369 16.3765 15.4369 16.1763C15.4369 15.9712 15.5077 15.7955 15.6493 15.649ZM12.0018 17.1724C12.1971 17.1724 12.3656 17.2432 12.5072 17.3848C12.6537 17.5313 12.7269 17.7046 12.7269 17.9048V19.4283C12.7269 19.6285 12.6537 19.7994 12.5072 19.941C12.3656 20.0874 12.1971 20.1607 12.0018 20.1607C11.7968 20.1607 11.6234 20.0874 11.4818 19.941C11.3402 19.7994 11.2694 19.6285 11.2694 19.4283V17.9048C11.2694 17.7046 11.3402 17.5313 11.4818 17.3848C11.6234 17.2432 11.7968 17.1724 12.0018 17.1724ZM8.34705 15.649C8.48376 15.7955 8.55212 15.9712 8.55212 16.1763C8.55212 16.3765 8.48132 16.545 8.33972 16.6817L7.25574 17.773C7.11902 17.9048 6.94568 17.9683 6.73572 17.9634C6.53064 17.9634 6.3573 17.8951 6.2157 17.7583C6.08386 17.6167 6.01794 17.4434 6.01794 17.2383C6.01794 17.0332 6.08875 16.8624 6.23035 16.7256L7.30701 15.649C7.44861 15.5123 7.62195 15.4439 7.82703 15.4439C8.0321 15.4439 8.20544 15.5123 8.34705 15.649ZM6.83826 12.0015C6.83826 12.2017 6.76501 12.3726 6.61853 12.5142C6.47205 12.6558 6.29871 12.7266 6.09851 12.7266H4.57507C4.37976 12.7266 4.20886 12.6558 4.06238 12.5142C3.92078 12.3726 3.84998 12.2017 3.84998 12.0015C3.84998 11.8013 3.92078 11.6304 4.06238 11.4888C4.20886 11.3423 4.37976 11.2691 4.57507 11.2691H6.09851C6.29871 11.2691 6.47205 11.3423 6.61853 11.4888C6.76501 11.6304 6.83826 11.8013 6.83826 12.0015ZM8.33972 8.35405C8.19812 8.49565 8.02478 8.56645 7.8197 8.56645C7.61951 8.56645 7.44861 8.49565 7.30701 8.35405L6.23035 7.26274C6.09363 7.12602 6.02527 6.95512 6.02527 6.75005C6.02527 6.54497 6.09607 6.37163 6.23767 6.23003C6.37927 6.08842 6.55261 6.02007 6.75769 6.02495C6.96277 6.02983 7.13367 6.10063 7.27039 6.23735L8.34705 7.32133C8.48376 7.45805 8.55212 7.63139 8.55212 7.84135C8.55212 8.04643 8.48132 8.21733 8.33972 8.35405ZM11.9945 15.8248C11.4672 15.8248 10.9716 15.7271 10.5077 15.5318C10.0438 15.3316 9.63611 15.0582 9.28455 14.7115C8.93787 14.3599 8.66443 13.9522 8.46423 13.4883C8.26892 13.0245 8.17126 12.5289 8.17126 12.0015C8.17126 11.4693 8.26892 10.9737 8.46423 10.5147C8.66443 10.0508 8.93787 9.64555 9.28455 9.29887C9.63611 8.94731 10.0438 8.67143 10.5077 8.47124C10.9716 8.27104 11.4672 8.17094 11.9945 8.17094C12.5219 8.17094 13.0175 8.27104 13.4813 8.47124C13.9452 8.67143 14.3505 8.94731 14.6971 9.29887C15.0487 9.64555 15.3221 10.0508 15.5175 10.5147C15.7177 10.9737 15.8177 11.4693 15.8177 12.0015C15.8177 12.5289 15.7177 13.0245 15.5175 13.4883C15.3221 13.9522 15.0487 14.3599 14.6971 14.7115C14.3505 15.0582 13.9452 15.3316 13.4813 15.5318C13.0175 15.7271 12.5219 15.8248 11.9945 15.8248Z" fill="white"/>
</svg>
