<svg width="24" height="24" viewBox="0 0 24 24" fill="none" xmlns="http://www.w3.org/2000/svg">
<path d="M5.95282 20.2042C5.0036 20.2042 4.28583 19.961 3.7995 19.4747C3.31317 18.9942 3.07001 18.2852 3.07001 17.3477V6.65144C3.07001 5.70808 3.31317 4.99617 3.7995 4.5157C4.28583 4.03523 5.0036 3.795 5.95282 3.795H18.0466C19.0016 3.795 19.7194 4.03523 20.1999 4.5157C20.6862 4.99617 20.9294 5.70808 20.9294 6.65144V17.3477C20.9294 18.2852 20.6862 18.9942 20.1999 19.4747C19.7194 19.961 19.0016 20.2042 18.0466 20.2042H5.95282ZM5.93524 18.4727H18.0554C18.4245 18.4727 18.7057 18.379 18.8991 18.1915C19.0983 17.9981 19.1979 17.711 19.1979 17.3302V9.20906C19.1979 8.8282 19.0983 8.54109 18.8991 8.34773C18.7057 8.15437 18.4245 8.05769 18.0554 8.05769H5.93524C5.5661 8.05769 5.28485 8.15437 5.09149 8.34773C4.89813 8.54109 4.80145 8.8282 4.80145 9.20906V17.3302C4.80145 17.711 4.89813 17.9981 5.09149 18.1915C5.28485 18.379 5.5661 18.4727 5.93524 18.4727ZM10.3122 11.1163C10.154 11.1163 10.0427 11.087 9.97821 11.0284C9.91962 10.9639 9.89032 10.8555 9.89032 10.7032V10.1846C9.89032 10.0264 9.91962 9.92097 9.97821 9.86824C10.0427 9.80965 10.154 9.78035 10.3122 9.78035H10.8307C10.9831 9.78035 11.0915 9.80965 11.1559 9.86824C11.2204 9.92097 11.2526 10.0264 11.2526 10.1846V10.7032C11.2526 10.8555 11.2204 10.9639 11.1559 11.0284C11.0915 11.087 10.9831 11.1163 10.8307 11.1163H10.3122ZM13.1774 11.1163C13.0251 11.1163 12.9167 11.087 12.8522 11.0284C12.7936 10.9639 12.7643 10.8555 12.7643 10.7032V10.1846C12.7643 10.0264 12.7936 9.92097 12.8522 9.86824C12.9167 9.80965 13.0251 9.78035 13.1774 9.78035H13.696C13.86 9.78035 13.9714 9.80965 14.03 9.86824C14.0886 9.92097 14.1179 10.0264 14.1179 10.1846V10.7032C14.1179 10.8555 14.0886 10.9639 14.03 11.0284C13.9714 11.087 13.86 11.1163 13.696 11.1163H13.1774ZM16.0602 11.1163C15.902 11.1163 15.7907 11.087 15.7263 11.0284C15.6677 10.9639 15.6384 10.8555 15.6384 10.7032V10.1846C15.6384 10.0264 15.6677 9.92097 15.7263 9.86824C15.7907 9.80965 15.902 9.78035 16.0602 9.78035H16.57C16.7341 9.78035 16.8454 9.80965 16.904 9.86824C16.9626 9.92097 16.9919 10.0264 16.9919 10.1846V10.7032C16.9919 10.8555 16.9626 10.9639 16.904 11.0284C16.8454 11.087 16.7341 11.1163 16.57 11.1163H16.0602ZM7.43817 13.9376C7.27997 13.9376 7.16864 13.9083 7.10419 13.8497C7.04559 13.7911 7.0163 13.6856 7.0163 13.5333V13.0147C7.0163 12.8565 7.04559 12.7481 7.10419 12.6895C7.16864 12.6309 7.27997 12.6016 7.43817 12.6016H7.95673C8.10907 12.6016 8.21454 12.6309 8.27313 12.6895C8.33759 12.7481 8.36981 12.8565 8.36981 13.0147V13.5333C8.36981 13.6856 8.33759 13.7911 8.27313 13.8497C8.21454 13.9083 8.10907 13.9376 7.95673 13.9376H7.43817ZM10.3122 13.9376C10.154 13.9376 10.0427 13.9083 9.97821 13.8497C9.91962 13.7911 9.89032 13.6856 9.89032 13.5333V13.0147C9.89032 12.8565 9.91962 12.7481 9.97821 12.6895C10.0427 12.6309 10.154 12.6016 10.3122 12.6016H10.8307C10.9831 12.6016 11.0915 12.6309 11.1559 12.6895C11.2204 12.7481 11.2526 12.8565 11.2526 13.0147V13.5333C11.2526 13.6856 11.2204 13.7911 11.1559 13.8497C11.0915 13.9083 10.9831 13.9376 10.8307 13.9376H10.3122ZM13.1774 13.9376C13.0251 13.9376 12.9167 13.9083 12.8522 13.8497C12.7936 13.7911 12.7643 13.6856 12.7643 13.5333V13.0147C12.7643 12.8565 12.7936 12.7481 12.8522 12.6895C12.9167 12.6309 13.0251 12.6016 13.1774 12.6016H13.696C13.86 12.6016 13.9714 12.6309 14.03 12.6895C14.0886 12.7481 14.1179 12.8565 14.1179 13.0147V13.5333C14.1179 13.6856 14.0886 13.7911 14.03 13.8497C13.9714 13.9083 13.86 13.9376 13.696 13.9376H13.1774ZM16.0602 13.9376C15.902 13.9376 15.7907 13.9083 15.7263 13.8497C15.6677 13.7911 15.6384 13.6856 15.6384 13.5333V13.0147C15.6384 12.8565 15.6677 12.7481 15.7263 12.6895C15.7907 12.6309 15.902 12.6016 16.0602 12.6016H16.57C16.7341 12.6016 16.8454 12.6309 16.904 12.6895C16.9626 12.7481 16.9919 12.8565 16.9919 13.0147V13.5333C16.9919 13.6856 16.9626 13.7911 16.904 13.8497C16.8454 13.9083 16.7341 13.9376 16.57 13.9376H16.0602ZM7.43817 16.7677C7.27997 16.7677 7.16864 16.7413 7.10419 16.6886C7.04559 16.63 7.0163 16.5186 7.0163 16.3546V15.8448C7.0163 15.6866 7.04559 15.5782 7.10419 15.5196C7.16864 15.461 7.27997 15.4317 7.43817 15.4317H7.95673C8.10907 15.4317 8.21454 15.461 8.27313 15.5196C8.33759 15.5782 8.36981 15.6866 8.36981 15.8448V16.3546C8.36981 16.5186 8.33759 16.63 8.27313 16.6886C8.21454 16.7413 8.10907 16.7677 7.95673 16.7677H7.43817ZM10.3122 16.7677C10.154 16.7677 10.0427 16.7413 9.97821 16.6886C9.91962 16.63 9.89032 16.5186 9.89032 16.3546V15.8448C9.89032 15.6866 9.91962 15.5782 9.97821 15.5196C10.0427 15.461 10.154 15.4317 10.3122 15.4317H10.8307C10.9831 15.4317 11.0915 15.461 11.1559 15.5196C11.2204 15.5782 11.2526 15.6866 11.2526 15.8448V16.3546C11.2526 16.5186 11.2204 16.63 11.1559 16.6886C11.0915 16.7413 10.9831 16.7677 10.8307 16.7677H10.3122ZM13.1774 16.7677C13.0251 16.7677 12.9167 16.7413 12.8522 16.6886C12.7936 16.63 12.7643 16.5186 12.7643 16.3546V15.8448C12.7643 15.6866 12.7936 15.5782 12.8522 15.5196C12.9167 15.461 13.0251 15.4317 13.1774 15.4317H13.696C13.86 15.4317 13.9714 15.461 14.03 15.5196C14.0886 15.5782 14.1179 15.6866 14.1179 15.8448V16.3546C14.1179 16.5186 14.0886 16.63 14.03 16.6886C13.9714 16.7413 13.86 16.7677 13.696 16.7677H13.1774Z" fill="white"/>
</svg>
